<svg xmlns="http://www.w3.org/2000/svg" width="508" height="64" viewBox="0 0 508 64" role="img" aria-label="FEATURED PROJECTS"><title>FEATURED PROJECTS</title><defs><pattern id="scan" width="1" height="3" patternUnits="userSpaceOnUse"><rect width="1" height="1" fill="#000"/></pattern></defs><rect width="508" height="64" fill="#1a0b2e"/><rect x="0" y="0" width="1" height="64" fill="#3d2a63" opacity="0.25"/><rect x="8" y="0" width="1" height="64" fill="#3d2a63" opacity="0.25"/><rect x="16" y="0" width="1" height="64" fill="#3d2a63" opacity="0.25"/><rect x="24" y="0" width="1" height="64" fill="#3d2a63" opacity="0.25"/><rect x="32" y="0" width="1" height="64" fill="#3d2a63" opacity="0.25"/><rect x="40" y="0" width="1" height="64" fill="#3d2a63" opacity="0.25"/><rect x="48" y="0" width="1" height="64" fill="#3d2a63" opacity="0.25"/><rect x="56" y="0" width="1" height="64" fill="#3d2a63" opacity="0.25"/><rect x="64" y="0" width="1" height="64" fill="#3d2a63" opacity="0.25"/><rect x="72" y="0" width="1" height="64" fill="#3d2a63" opacity="0.25"/><rect x="80" y="0" width="1" height="64" fill="#3d2a63" opacity="0.25"/><rect x="88" y="0" width="1" height="64" fill="#3d2a63" opacity="0.25"/><rect x="96" y="0" width="1" height="64" fill="#3d2a63" opacity="0.25"/><rect x="104" y="0" width="1" height="64" fill="#3d2a63" opacity="0.25"/><rect x="112" y="0" width="1" height="64" fill="#3d2a63" opacity="0.25"/><rect x="120" y="0" width="1" height="64" fill="#3d2a63" opacity="0.25"/><rect x="128" y="0" width="1" height="64" fill="#3d2a63" opacity="0.25"/><rect x="136" y="0" width="1" height="64" fill="#3d2a63" opacity="0.25"/><rect x="144" y="0" width="1" height="64" fill="#3d2a63" opacity="0.25"/><rect x="152" y="0" width="1" height="64" fill="#3d2a63" opacity="0.25"/><rect x="160" y="0" width="1" height="64" fill="#3d2a63" opacity="0.25"/><rect x="168" y="0" width="1" height="64" fill="#3d2a63" opacity="0.25"/><rect x="176" y="0" width="1" height="64" fill="#3d2a63" opacity="0.25"/><rect x="184" y="0" width="1" height="64" fill="#3d2a63" opacity="0.25"/><rect x="192" y="0" width="1" height="64" fill="#3d2a63" opacity="0.25"/><rect x="200" y="0" width="1" height="64" fill="#3d2a63" opacity="0.25"/><rect x="208" y="0" width="1" height="64" fill="#3d2a63" opacity="0.25"/><rect x="216" y="0" width="1" height="64" fill="#3d2a63" opacity="0.25"/><rect x="224" y="0" width="1" height="64" fill="#3d2a63" opacity="0.25"/><rect x="232" y="0" width="1" height="64" fill="#3d2a63" opacity="0.25"/><rect x="240" y="0" width="1" height="64" fill="#3d2a63" opacity="0.25"/><rect x="248" y="0" width="1" height="64" fill="#3d2a63" opacity="0.25"/><rect x="256" y="0" width="1" height="64" fill="#3d2a63" opacity="0.25"/><rect x="264" y="0" width="1" height="64" fill="#3d2a63" opacity="0.25"/><rect x="272" y="0" width="1" height="64" fill="#3d2a63" opacity="0.25"/><rect x="280" y="0" width="1" height="64" fill="#3d2a63" opacity="0.25"/><rect x="288" y="0" width="1" height="64" fill="#3d2a63" opacity="0.25"/><rect x="296" y="0" width="1" height="64" fill="#3d2a63" opacity="0.25"/><rect x="304" y="0" width="1" height="64" fill="#3d2a63" opacity="0.25"/><rect x="312" y="0" width="1" height="64" fill="#3d2a63" opacity="0.25"/><rect x="320" y="0" width="1" height="64" fill="#3d2a63" opacity="0.25"/><rect x="328" y="0" width="1" height="64" fill="#3d2a63" opacity="0.25"/><rect x="336" y="0" width="1" height="64" fill="#3d2a63" opacity="0.25"/><rect x="344" y="0" width="1" height="64" fill="#3d2a63" opacity="0.25"/><rect x="352" y="0" width="1" height="64" fill="#3d2a63" opacity="0.25"/><rect x="360" y="0" width="1" height="64" fill="#3d2a63" opacity="0.25"/><rect x="368" y="0" width="1" height="64" fill="#3d2a63" opacity="0.25"/><rect x="376" y="0" width="1" height="64" fill="#3d2a63" opacity="0.25"/><rect x="384" y="0" width="1" height="64" fill="#3d2a63" opacity="0.25"/><rect x="392" y="0" width="1" height="64" fill="#3d2a63" opacity="0.25"/><rect x="400" y="0" width="1" height="64" fill="#3d2a63" opacity="0.25"/><rect x="408" y="0" width="1" height="64" fill="#3d2a63" opacity="0.25"/><rect x="416" y="0" width="1" height="64" fill="#3d2a63" opacity="0.25"/><rect x="424" y="0" width="1" height="64" fill="#3d2a63" opacity="0.25"/><rect x="432" y="0" width="1" height="64" fill="#3d2a63" opacity="0.25"/><rect x="440" y="0" width="1" height="64" fill="#3d2a63" opacity="0.25"/><rect x="448" y="0" width="1" height="64" fill="#3d2a63" opacity="0.25"/><rect x="456" y="0" width="1" height="64" fill="#3d2a63" opacity="0.25"/><rect x="464" y="0" width="1" height="64" fill="#3d2a63" opacity="0.25"/><rect x="472" y="0" width="1" height="64" fill="#3d2a63" opacity="0.25"/><rect x="480" y="0" width="1" height="64" fill="#3d2a63" opacity="0.25"/><rect x="488" y="0" width="1" height="64" fill="#3d2a63" opacity="0.25"/><rect x="496" y="0" width="1" height="64" fill="#3d2a63" opacity="0.25"/><rect x="504" y="0" width="1" height="64" fill="#3d2a63" opacity="0.25"/><rect x="26" y="14" width="36" height="3" fill="#a45cff"/><rect x="23" y="17" width="42" height="3" fill="#a45cff"/><rect x="23" y="20" width="12" height="3" fill="#a45cff"/><rect x="35" y="20" width="3" height="3" fill="#e8e3ff"/><rect x="38" y="20" width="15" height="3" fill="#a45cff"/><rect x="53" y="20" width="3" height="3" fill="#ff2e97"/><rect x="56" y="20" width="9" height="3" fill="#a45cff"/><rect x="23" y="23" width="9" height="3" fill="#a45cff"/><rect x="32" y="23" width="9" height="3" fill="#e8e3ff"/><rect x="41" y="23" width="9" height="3" fill="#a45cff"/><rect x="50" y="23" width="3" height="3" fill="#ff2e97"/><rect x="53" y="23" width="3" height="3" fill="#a45cff"/><rect x="56" y="23" width="3" height="3" fill="#ff2e97"/><rect x="59" y="23" width="6" height="3" fill="#a45cff"/><rect x="23" y="26" width="12" height="3" fill="#a45cff"/><rect x="35" y="26" width="3" height="3" fill="#e8e3ff"/><rect x="38" y="26" width="15" height="3" fill="#a45cff"/><rect x="53" y="26" width="3" height="3" fill="#ff2e97"/><rect x="56" y="26" width="9" height="3" fill="#a45cff"/><rect x="23" y="29" width="42" height="3" fill="#a45cff"/><rect x="23" y="32" width="42" height="3" fill="#a45cff"/><rect x="26" y="35" width="12" height="3" fill="#a45cff"/><rect x="50" y="35" width="12" height="3" fill="#a45cff"/><rect x="29" y="38" width="6" height="3" fill="#a45cff"/><rect x="53" y="38" width="6" height="3" fill="#a45cff"/><rect x="84" y="20" width="20" height="4" fill="#ff2e97" opacity="0.75"/><rect x="84" y="24" width="4" height="4" fill="#ff2e97" opacity="0.75"/><rect x="84" y="28" width="4" height="4" fill="#ff2e97" opacity="0.75"/><rect x="84" y="32" width="16" height="4" fill="#ff2e97" opacity="0.75"/><rect x="84" y="36" width="4" height="4" fill="#ff2e97" opacity="0.75"/><rect x="84" y="40" width="4" height="4" fill="#ff2e97" opacity="0.75"/><rect x="84" y="44" width="4" height="4" fill="#ff2e97" opacity="0.75"/><rect x="108" y="20" width="20" height="4" fill="#ff2e97" opacity="0.75"/><rect x="108" y="24" width="4" height="4" fill="#ff2e97" opacity="0.75"/><rect x="108" y="28" width="4" height="4" fill="#ff2e97" opacity="0.75"/><rect x="108" y="32" width="16" height="4" fill="#ff2e97" opacity="0.75"/><rect x="108" y="36" width="4" height="4" fill="#ff2e97" opacity="0.75"/><rect x="108" y="40" width="4" height="4" fill="#ff2e97" opacity="0.75"/><rect x="108" y="44" width="20" height="4" fill="#ff2e97" opacity="0.75"/><rect x="136" y="20" width="12" height="4" fill="#ff2e97" opacity="0.75"/><rect x="132" y="24" width="4" height="4" fill="#ff2e97" opacity="0.75"/><rect x="148" y="24" width="4" height="4" fill="#ff2e97" opacity="0.75"/><rect x="132" y="28" width="4" height="4" fill="#ff2e97" opacity="0.75"/><rect x="148" y="28" width="4" height="4" fill="#ff2e97" opacity="0.75"/><rect x="132" y="32" width="20" height="4" fill="#ff2e97" opacity="0.75"/><rect x="132" y="36" width="4" height="4" fill="#ff2e97" opacity="0.75"/><rect x="148" y="36" width="4" height="4" fill="#ff2e97" opacity="0.75"/><rect x="132" y="40" width="4" height="4" fill="#ff2e97" opacity="0.75"/><rect x="148" y="40" width="4" height="4" fill="#ff2e97" opacity="0.75"/><rect x="132" y="44" width="4" height="4" fill="#ff2e97" opacity="0.75"/><rect x="148" y="44" width="4" height="4" fill="#ff2e97" opacity="0.75"/><rect x="156" y="20" width="20" height="4" fill="#ff2e97" opacity="0.75"/><rect x="164" y="24" width="4" height="4" fill="#ff2e97" opacity="0.75"/><rect x="164" y="28" width="4" height="4" fill="#ff2e97" opacity="0.75"/><rect x="164" y="32" width="4" height="4" fill="#ff2e97" opacity="0.75"/><rect x="164" y="36" width="4" height="4" fill="#ff2e97" opacity="0.75"/><rect x="164" y="40" width="4" height="4" fill="#ff2e97" opacity="0.75"/><rect x="164" y="44" width="4" height="4" fill="#ff2e97" opacity="0.75"/><rect x="180" y="20" width="4" height="4" fill="#ff2e97" opacity="0.75"/><rect x="196" y="20" width="4" height="4" fill="#ff2e97" opacity="0.75"/><rect x="180" y="24" width="4" height="4" fill="#ff2e97" opacity="0.75"/><rect x="196" y="24" width="4" height="4" fill="#ff2e97" opacity="0.75"/><rect x="180" y="28" width="4" height="4" fill="#ff2e97" opacity="0.75"/><rect x="196" y="28" width="4" height="4" fill="#ff2e97" opacity="0.75"/><rect x="180" y="32" width="4" height="4" fill="#ff2e97" opacity="0.75"/><rect x="196" y="32" width="4" height="4" fill="#ff2e97" opacity="0.75"/><rect x="180" y="36" width="4" height="4" fill="#ff2e97" opacity="0.75"/><rect x="196" y="36" width="4" height="4" fill="#ff2e97" opacity="0.75"/><rect x="180" y="40" width="4" height="4" fill="#ff2e97" opacity="0.75"/><rect x="196" y="40" width="4" height="4" fill="#ff2e97" opacity="0.75"/><rect x="184" y="44" width="12" height="4" fill="#ff2e97" opacity="0.75"/><rect x="204" y="20" width="16" height="4" fill="#ff2e97" opacity="0.75"/><rect x="204" y="24" width="4" height="4" fill="#ff2e97" opacity="0.75"/><rect x="220" y="24" width="4" height="4" fill="#ff2e97" opacity="0.75"/><rect x="204" y="28" width="4" height="4" fill="#ff2e97" opacity="0.75"/><rect x="220" y="28" width="4" height="4" fill="#ff2e97" opacity="0.75"/><rect x="204" y="32" width="16" height="4" fill="#ff2e97" opacity="0.75"/><rect x="204" y="36" width="4" height="4" fill="#ff2e97" opacity="0.75"/><rect x="212" y="36" width="4" height="4" fill="#ff2e97" opacity="0.75"/><rect x="204" y="40" width="4" height="4" fill="#ff2e97" opacity="0.75"/><rect x="216" y="40" width="4" height="4" fill="#ff2e97" opacity="0.75"/><rect x="204" y="44" width="4" height="4" fill="#ff2e97" opacity="0.75"/><rect x="220" y="44" width="4" height="4" fill="#ff2e97" opacity="0.75"/><rect x="228" y="20" width="20" height="4" fill="#ff2e97" opacity="0.75"/><rect x="228" y="24" width="4" height="4" fill="#ff2e97" opacity="0.75"/><rect x="228" y="28" width="4" height="4" fill="#ff2e97" opacity="0.75"/><rect x="228" y="32" width="16" height="4" fill="#ff2e97" opacity="0.75"/><rect x="228" y="36" width="4" height="4" fill="#ff2e97" opacity="0.75"/><rect x="228" y="40" width="4" height="4" fill="#ff2e97" opacity="0.75"/><rect x="228" y="44" width="20" height="4" fill="#ff2e97" opacity="0.75"/><rect x="252" y="20" width="16" height="4" fill="#ff2e97" opacity="0.75"/><rect x="252" y="24" width="4" height="4" fill="#ff2e97" opacity="0.75"/><rect x="268" y="24" width="4" height="4" fill="#ff2e97" opacity="0.75"/><rect x="252" y="28" width="4" height="4" fill="#ff2e97" opacity="0.75"/><rect x="268" y="28" width="4" height="4" fill="#ff2e97" opacity="0.75"/><rect x="252" y="32" width="4" height="4" fill="#ff2e97" opacity="0.75"/><rect x="268" y="32" width="4" height="4" fill="#ff2e97" opacity="0.75"/><rect x="252" y="36" width="4" height="4" fill="#ff2e97" opacity="0.75"/><rect x="268" y="36" width="4" height="4" fill="#ff2e97" opacity="0.75"/><rect x="252" y="40" width="4" height="4" fill="#ff2e97" opacity="0.75"/><rect x="268" y="40" width="4" height="4" fill="#ff2e97" opacity="0.75"/><rect x="252" y="44" width="16" height="4" fill="#ff2e97" opacity="0.75"/><rect x="300" y="20" width="16" height="4" fill="#ff2e97" opacity="0.75"/><rect x="300" y="24" width="4" height="4" fill="#ff2e97" opacity="0.75"/><rect x="316" y="24" width="4" height="4" fill="#ff2e97" opacity="0.75"/><rect x="300" y="28" width="4" height="4" fill="#ff2e97" opacity="0.75"/><rect x="316" y="28" width="4" height="4" fill="#ff2e97" opacity="0.75"/><rect x="300" y="32" width="16" height="4" fill="#ff2e97" opacity="0.75"/><rect x="300" y="36" width="4" height="4" fill="#ff2e97" opacity="0.75"/><rect x="300" y="40" width="4" height="4" fill="#ff2e97" opacity="0.75"/><rect x="300" y="44" width="4" height="4" fill="#ff2e97" opacity="0.75"/><rect x="324" y="20" width="16" height="4" fill="#ff2e97" opacity="0.75"/><rect x="324" y="24" width="4" height="4" fill="#ff2e97" opacity="0.75"/><rect x="340" y="24" width="4" height="4" fill="#ff2e97" opacity="0.75"/><rect x="324" y="28" width="4" height="4" fill="#ff2e97" opacity="0.75"/><rect x="340" y="28" width="4" height="4" fill="#ff2e97" opacity="0.75"/><rect x="324" y="32" width="16" height="4" fill="#ff2e97" opacity="0.75"/><rect x="324" y="36" width="4" height="4" fill="#ff2e97" opacity="0.75"/><rect x="332" y="36" width="4" height="4" fill="#ff2e97" opacity="0.75"/><rect x="324" y="40" width="4" height="4" fill="#ff2e97" opacity="0.75"/><rect x="336" y="40" width="4" height="4" fill="#ff2e97" opacity="0.75"/><rect x="324" y="44" width="4" height="4" fill="#ff2e97" opacity="0.75"/><rect x="340" y="44" width="4" height="4" fill="#ff2e97" opacity="0.75"/><rect x="352" y="20" width="12" height="4" fill="#ff2e97" opacity="0.75"/><rect x="348" y="24" width="4" height="4" fill="#ff2e97" opacity="0.75"/><rect x="364" y="24" width="4" height="4" fill="#ff2e97" opacity="0.75"/><rect x="348" y="28" width="4" height="4" fill="#ff2e97" opacity="0.75"/><rect x="364" y="28" width="4" height="4" fill="#ff2e97" opacity="0.75"/><rect x="348" y="32" width="4" height="4" fill="#ff2e97" opacity="0.75"/><rect x="364" y="32" width="4" height="4" fill="#ff2e97" opacity="0.75"/><rect x="348" y="36" width="4" height="4" fill="#ff2e97" opacity="0.75"/><rect x="364" y="36" width="4" height="4" fill="#ff2e97" opacity="0.75"/><rect x="348" y="40" width="4" height="4" fill="#ff2e97" opacity="0.75"/><rect x="364" y="40" width="4" height="4" fill="#ff2e97" opacity="0.75"/><rect x="352" y="44" width="12" height="4" fill="#ff2e97" opacity="0.75"/><rect x="380" y="20" width="12" height="4" fill="#ff2e97" opacity="0.75"/><rect x="384" y="24" width="4" height="4" fill="#ff2e97" opacity="0.75"/><rect x="384" y="28" width="4" height="4" fill="#ff2e97" opacity="0.75"/><rect x="384" y="32" width="4" height="4" fill="#ff2e97" opacity="0.75"/><rect x="384" y="36" width="4" height="4" fill="#ff2e97" opacity="0.75"/><rect x="372" y="40" width="4" height="4" fill="#ff2e97" opacity="0.75"/><rect x="384" y="40" width="4" height="4" fill="#ff2e97" opacity="0.75"/><rect x="376" y="44" width="8" height="4" fill="#ff2e97" opacity="0.75"/><rect x="396" y="20" width="20" height="4" fill="#ff2e97" opacity="0.75"/><rect x="396" y="24" width="4" height="4" fill="#ff2e97" opacity="0.75"/><rect x="396" y="28" width="4" height="4" fill="#ff2e97" opacity="0.75"/><rect x="396" y="32" width="16" height="4" fill="#ff2e97" opacity="0.75"/><rect x="396" y="36" width="4" height="4" fill="#ff2e97" opacity="0.75"/><rect x="396" y="40" width="4" height="4" fill="#ff2e97" opacity="0.75"/><rect x="396" y="44" width="20" height="4" fill="#ff2e97" opacity="0.75"/><rect x="424" y="20" width="12" height="4" fill="#ff2e97" opacity="0.75"/><rect x="420" y="24" width="4" height="4" fill="#ff2e97" opacity="0.75"/><rect x="436" y="24" width="4" height="4" fill="#ff2e97" opacity="0.75"/><rect x="420" y="28" width="4" height="4" fill="#ff2e97" opacity="0.75"/><rect x="420" y="32" width="4" height="4" fill="#ff2e97" opacity="0.75"/><rect x="420" y="36" width="4" height="4" fill="#ff2e97" opacity="0.75"/><rect x="420" y="40" width="4" height="4" fill="#ff2e97" opacity="0.75"/><rect x="436" y="40" width="4" height="4" fill="#ff2e97" opacity="0.75"/><rect x="424" y="44" width="12" height="4" fill="#ff2e97" opacity="0.75"/><rect x="444" y="20" width="20" height="4" fill="#ff2e97" opacity="0.75"/><rect x="452" y="24" width="4" height="4" fill="#ff2e97" opacity="0.75"/><rect x="452" y="28" width="4" height="4" fill="#ff2e97" opacity="0.75"/><rect x="452" y="32" width="4" height="4" fill="#ff2e97" opacity="0.75"/><rect x="452" y="36" width="4" height="4" fill="#ff2e97" opacity="0.75"/><rect x="452" y="40" width="4" height="4" fill="#ff2e97" opacity="0.75"/><rect x="452" y="44" width="4" height="4" fill="#ff2e97" opacity="0.75"/><rect x="472" y="20" width="16" height="4" fill="#ff2e97" opacity="0.75"/><rect x="468" y="24" width="4" height="4" fill="#ff2e97" opacity="0.75"/><rect x="468" y="28" width="4" height="4" fill="#ff2e97" opacity="0.75"/><rect x="472" y="32" width="12" height="4" fill="#ff2e97" opacity="0.75"/><rect x="484" y="36" width="4" height="4" fill="#ff2e97" opacity="0.75"/><rect x="484" y="40" width="4" height="4" fill="#ff2e97" opacity="0.75"/><rect x="468" y="44" width="16" height="4" fill="#ff2e97" opacity="0.75"/><rect x="84" y="18" width="20" height="4" fill="#e8e3ff"/><rect x="84" y="22" width="4" height="4" fill="#e8e3ff"/><rect x="84" y="26" width="4" height="4" fill="#e8e3ff"/><rect x="84" y="30" width="16" height="4" fill="#e8e3ff"/><rect x="84" y="34" width="4" height="4" fill="#e8e3ff"/><rect x="84" y="38" width="4" height="4" fill="#e8e3ff"/><rect x="84" y="42" width="4" height="4" fill="#e8e3ff"/><rect x="108" y="18" width="20" height="4" fill="#e8e3ff"/><rect x="108" y="22" width="4" height="4" fill="#e8e3ff"/><rect x="108" y="26" width="4" height="4" fill="#e8e3ff"/><rect x="108" y="30" width="16" height="4" fill="#e8e3ff"/><rect x="108" y="34" width="4" height="4" fill="#e8e3ff"/><rect x="108" y="38" width="4" height="4" fill="#e8e3ff"/><rect x="108" y="42" width="20" height="4" fill="#e8e3ff"/><rect x="136" y="18" width="12" height="4" fill="#e8e3ff"/><rect x="132" y="22" width="4" height="4" fill="#e8e3ff"/><rect x="148" y="22" width="4" height="4" fill="#e8e3ff"/><rect x="132" y="26" width="4" height="4" fill="#e8e3ff"/><rect x="148" y="26" width="4" height="4" fill="#e8e3ff"/><rect x="132" y="30" width="20" height="4" fill="#e8e3ff"/><rect x="132" y="34" width="4" height="4" fill="#e8e3ff"/><rect x="148" y="34" width="4" height="4" fill="#e8e3ff"/><rect x="132" y="38" width="4" height="4" fill="#e8e3ff"/><rect x="148" y="38" width="4" height="4" fill="#e8e3ff"/><rect x="132" y="42" width="4" height="4" fill="#e8e3ff"/><rect x="148" y="42" width="4" height="4" fill="#e8e3ff"/><rect x="156" y="18" width="20" height="4" fill="#e8e3ff"/><rect x="164" y="22" width="4" height="4" fill="#e8e3ff"/><rect x="164" y="26" width="4" height="4" fill="#e8e3ff"/><rect x="164" y="30" width="4" height="4" fill="#e8e3ff"/><rect x="164" y="34" width="4" height="4" fill="#e8e3ff"/><rect x="164" y="38" width="4" height="4" fill="#e8e3ff"/><rect x="164" y="42" width="4" height="4" fill="#e8e3ff"/><rect x="180" y="18" width="4" height="4" fill="#e8e3ff"/><rect x="196" y="18" width="4" height="4" fill="#e8e3ff"/><rect x="180" y="22" width="4" height="4" fill="#e8e3ff"/><rect x="196" y="22" width="4" height="4" fill="#e8e3ff"/><rect x="180" y="26" width="4" height="4" fill="#e8e3ff"/><rect x="196" y="26" width="4" height="4" fill="#e8e3ff"/><rect x="180" y="30" width="4" height="4" fill="#e8e3ff"/><rect x="196" y="30" width="4" height="4" fill="#e8e3ff"/><rect x="180" y="34" width="4" height="4" fill="#e8e3ff"/><rect x="196" y="34" width="4" height="4" fill="#e8e3ff"/><rect x="180" y="38" width="4" height="4" fill="#e8e3ff"/><rect x="196" y="38" width="4" height="4" fill="#e8e3ff"/><rect x="184" y="42" width="12" height="4" fill="#e8e3ff"/><rect x="204" y="18" width="16" height="4" fill="#e8e3ff"/><rect x="204" y="22" width="4" height="4" fill="#e8e3ff"/><rect x="220" y="22" width="4" height="4" fill="#e8e3ff"/><rect x="204" y="26" width="4" height="4" fill="#e8e3ff"/><rect x="220" y="26" width="4" height="4" fill="#e8e3ff"/><rect x="204" y="30" width="16" height="4" fill="#e8e3ff"/><rect x="204" y="34" width="4" height="4" fill="#e8e3ff"/><rect x="212" y="34" width="4" height="4" fill="#e8e3ff"/><rect x="204" y="38" width="4" height="4" fill="#e8e3ff"/><rect x="216" y="38" width="4" height="4" fill="#e8e3ff"/><rect x="204" y="42" width="4" height="4" fill="#e8e3ff"/><rect x="220" y="42" width="4" height="4" fill="#e8e3ff"/><rect x="228" y="18" width="20" height="4" fill="#e8e3ff"/><rect x="228" y="22" width="4" height="4" fill="#e8e3ff"/><rect x="228" y="26" width="4" height="4" fill="#e8e3ff"/><rect x="228" y="30" width="16" height="4" fill="#e8e3ff"/><rect x="228" y="34" width="4" height="4" fill="#e8e3ff"/><rect x="228" y="38" width="4" height="4" fill="#e8e3ff"/><rect x="228" y="42" width="20" height="4" fill="#e8e3ff"/><rect x="252" y="18" width="16" height="4" fill="#e8e3ff"/><rect x="252" y="22" width="4" height="4" fill="#e8e3ff"/><rect x="268" y="22" width="4" height="4" fill="#e8e3ff"/><rect x="252" y="26" width="4" height="4" fill="#e8e3ff"/><rect x="268" y="26" width="4" height="4" fill="#e8e3ff"/><rect x="252" y="30" width="4" height="4" fill="#e8e3ff"/><rect x="268" y="30" width="4" height="4" fill="#e8e3ff"/><rect x="252" y="34" width="4" height="4" fill="#e8e3ff"/><rect x="268" y="34" width="4" height="4" fill="#e8e3ff"/><rect x="252" y="38" width="4" height="4" fill="#e8e3ff"/><rect x="268" y="38" width="4" height="4" fill="#e8e3ff"/><rect x="252" y="42" width="16" height="4" fill="#e8e3ff"/><rect x="300" y="18" width="16" height="4" fill="#e8e3ff"/><rect x="300" y="22" width="4" height="4" fill="#e8e3ff"/><rect x="316" y="22" width="4" height="4" fill="#e8e3ff"/><rect x="300" y="26" width="4" height="4" fill="#e8e3ff"/><rect x="316" y="26" width="4" height="4" fill="#e8e3ff"/><rect x="300" y="30" width="16" height="4" fill="#e8e3ff"/><rect x="300" y="34" width="4" height="4" fill="#e8e3ff"/><rect x="300" y="38" width="4" height="4" fill="#e8e3ff"/><rect x="300" y="42" width="4" height="4" fill="#e8e3ff"/><rect x="324" y="18" width="16" height="4" fill="#e8e3ff"/><rect x="324" y="22" width="4" height="4" fill="#e8e3ff"/><rect x="340" y="22" width="4" height="4" fill="#e8e3ff"/><rect x="324" y="26" width="4" height="4" fill="#e8e3ff"/><rect x="340" y="26" width="4" height="4" fill="#e8e3ff"/><rect x="324" y="30" width="16" height="4" fill="#e8e3ff"/><rect x="324" y="34" width="4" height="4" fill="#e8e3ff"/><rect x="332" y="34" width="4" height="4" fill="#e8e3ff"/><rect x="324" y="38" width="4" height="4" fill="#e8e3ff"/><rect x="336" y="38" width="4" height="4" fill="#e8e3ff"/><rect x="324" y="42" width="4" height="4" fill="#e8e3ff"/><rect x="340" y="42" width="4" height="4" fill="#e8e3ff"/><rect x="352" y="18" width="12" height="4" fill="#e8e3ff"/><rect x="348" y="22" width="4" height="4" fill="#e8e3ff"/><rect x="364" y="22" width="4" height="4" fill="#e8e3ff"/><rect x="348" y="26" width="4" height="4" fill="#e8e3ff"/><rect x="364" y="26" width="4" height="4" fill="#e8e3ff"/><rect x="348" y="30" width="4" height="4" fill="#e8e3ff"/><rect x="364" y="30" width="4" height="4" fill="#e8e3ff"/><rect x="348" y="34" width="4" height="4" fill="#e8e3ff"/><rect x="364" y="34" width="4" height="4" fill="#e8e3ff"/><rect x="348" y="38" width="4" height="4" fill="#e8e3ff"/><rect x="364" y="38" width="4" height="4" fill="#e8e3ff"/><rect x="352" y="42" width="12" height="4" fill="#e8e3ff"/><rect x="380" y="18" width="12" height="4" fill="#e8e3ff"/><rect x="384" y="22" width="4" height="4" fill="#e8e3ff"/><rect x="384" y="26" width="4" height="4" fill="#e8e3ff"/><rect x="384" y="30" width="4" height="4" fill="#e8e3ff"/><rect x="384" y="34" width="4" height="4" fill="#e8e3ff"/><rect x="372" y="38" width="4" height="4" fill="#e8e3ff"/><rect x="384" y="38" width="4" height="4" fill="#e8e3ff"/><rect x="376" y="42" width="8" height="4" fill="#e8e3ff"/><rect x="396" y="18" width="20" height="4" fill="#e8e3ff"/><rect x="396" y="22" width="4" height="4" fill="#e8e3ff"/><rect x="396" y="26" width="4" height="4" fill="#e8e3ff"/><rect x="396" y="30" width="16" height="4" fill="#e8e3ff"/><rect x="396" y="34" width="4" height="4" fill="#e8e3ff"/><rect x="396" y="38" width="4" height="4" fill="#e8e3ff"/><rect x="396" y="42" width="20" height="4" fill="#e8e3ff"/><rect x="424" y="18" width="12" height="4" fill="#e8e3ff"/><rect x="420" y="22" width="4" height="4" fill="#e8e3ff"/><rect x="436" y="22" width="4" height="4" fill="#e8e3ff"/><rect x="420" y="26" width="4" height="4" fill="#e8e3ff"/><rect x="420" y="30" width="4" height="4" fill="#e8e3ff"/><rect x="420" y="34" width="4" height="4" fill="#e8e3ff"/><rect x="420" y="38" width="4" height="4" fill="#e8e3ff"/><rect x="436" y="38" width="4" height="4" fill="#e8e3ff"/><rect x="424" y="42" width="12" height="4" fill="#e8e3ff"/><rect x="444" y="18" width="20" height="4" fill="#e8e3ff"/><rect x="452" y="22" width="4" height="4" fill="#e8e3ff"/><rect x="452" y="26" width="4" height="4" fill="#e8e3ff"/><rect x="452" y="30" width="4" height="4" fill="#e8e3ff"/><rect x="452" y="34" width="4" height="4" fill="#e8e3ff"/><rect x="452" y="38" width="4" height="4" fill="#e8e3ff"/><rect x="452" y="42" width="4" height="4" fill="#e8e3ff"/><rect x="472" y="18" width="16" height="4" fill="#e8e3ff"/><rect x="468" y="22" width="4" height="4" fill="#e8e3ff"/><rect x="468" y="26" width="4" height="4" fill="#e8e3ff"/><rect x="472" y="30" width="12" height="4" fill="#e8e3ff"/><rect x="484" y="34" width="4" height="4" fill="#e8e3ff"/><rect x="484" y="38" width="4" height="4" fill="#e8e3ff"/><rect x="468" y="42" width="16" height="4" fill="#e8e3ff"/><rect width="508" height="64" fill="url(#scan)" opacity="0.22"/><rect x="3.5" y="3.5" width="501" height="57" fill="none" stroke="#ff2e97" stroke-width="3"/><rect x="10.5" y="10.5" width="487" height="43" fill="none" stroke="#a45cff" stroke-width="1" opacity="0.5"/><rect x="0" y="0" width="14" height="14" fill="#0d0221"/><rect x="3" y="3" width="8" height="8" fill="#00e5ff"/><rect x="494" y="0" width="14" height="14" fill="#0d0221"/><rect x="497" y="3" width="8" height="8" fill="#00e5ff"/><rect x="0" y="50" width="14" height="14" fill="#0d0221"/><rect x="3" y="53" width="8" height="8" fill="#00e5ff"/><rect x="494" y="50" width="14" height="14" fill="#0d0221"/><rect x="497" y="53" width="8" height="8" fill="#00e5ff"/></svg>