<svg xmlns="http://www.w3.org/2000/svg" width="156" height="36" viewBox="0 0 156 36" role="img" aria-label="TOOLS"><title>TOOLS</title><rect width="156" height="36" fill="#1a0b2e"/><rect x="1" y="1" width="154" height="34" fill="none" stroke="#ff2e97" stroke-width="2"/><rect x="14" y="7.5" width="3" height="3" fill="#00e5ff"/><rect x="17" y="10.5" width="3" height="3" fill="#00e5ff"/><rect x="20" y="13.5" width="3" height="3" fill="#00e5ff"/><rect x="23" y="16.5" width="3" height="3" fill="#00e5ff"/><rect x="20" y="19.5" width="3" height="3" fill="#00e5ff"/><rect x="17" y="22.5" width="3" height="3" fill="#00e5ff"/><rect x="14" y="25.5" width="3" height="3" fill="#00e5ff"/><rect x="32" y="7.5" width="3" height="3" fill="#00e5ff"/><rect x="35" y="10.5" width="3" height="3" fill="#00e5ff"/><rect x="38" y="13.5" width="3" height="3" fill="#00e5ff"/><rect x="41" y="16.5" width="3" height="3" fill="#00e5ff"/><rect x="38" y="19.5" width="3" height="3" fill="#00e5ff"/><rect x="35" y="22.5" width="3" height="3" fill="#00e5ff"/><rect x="32" y="25.5" width="3" height="3" fill="#00e5ff"/><rect x="55" y="7.5" width="15" height="3" fill="#e8e3ff"/><rect x="61" y="10.5" width="3" height="3" fill="#e8e3ff"/><rect x="61" y="13.5" width="3" height="3" fill="#e8e3ff"/><rect x="61" y="16.5" width="3" height="3" fill="#e8e3ff"/><rect x="61" y="19.5" width="3" height="3" fill="#e8e3ff"/><rect x="61" y="22.5" width="3" height="3" fill="#e8e3ff"/><rect x="61" y="25.5" width="3" height="3" fill="#e8e3ff"/><rect x="76" y="7.5" width="9" height="3" fill="#e8e3ff"/><rect x="73" y="10.5" width="3" height="3" fill="#e8e3ff"/><rect x="85" y="10.5" width="3" height="3" fill="#e8e3ff"/><rect x="73" y="13.5" width="3" height="3" fill="#e8e3ff"/><rect x="85" y="13.5" width="3" height="3" fill="#e8e3ff"/><rect x="73" y="16.5" width="3" height="3" fill="#e8e3ff"/><rect x="85" y="16.5" width="3" height="3" fill="#e8e3ff"/><rect x="73" y="19.5" width="3" height="3" fill="#e8e3ff"/><rect x="85" y="19.5" width="3" height="3" fill="#e8e3ff"/><rect x="73" y="22.5" width="3" height="3" fill="#e8e3ff"/><rect x="85" y="22.5" width="3" height="3" fill="#e8e3ff"/><rect x="76" y="25.5" width="9" height="3" fill="#e8e3ff"/><rect x="94" y="7.5" width="9" height="3" fill="#e8e3ff"/><rect x="91" y="10.5" width="3" height="3" fill="#e8e3ff"/><rect x="103" y="10.5" width="3" height="3" fill="#e8e3ff"/><rect x="91" y="13.5" width="3" height="3" fill="#e8e3ff"/><rect x="103" y="13.5" width="3" height="3" fill="#e8e3ff"/><rect x="91" y="16.5" width="3" height="3" fill="#e8e3ff"/><rect x="103" y="16.5" width="3" height="3" fill="#e8e3ff"/><rect x="91" y="19.5" width="3" height="3" fill="#e8e3ff"/><rect x="103" y="19.5" width="3" height="3" fill="#e8e3ff"/><rect x="91" y="22.5" width="3" height="3" fill="#e8e3ff"/><rect x="103" y="22.5" width="3" height="3" fill="#e8e3ff"/><rect x="94" y="25.5" width="9" height="3" fill="#e8e3ff"/><rect x="109" y="7.5" width="3" height="3" fill="#e8e3ff"/><rect x="109" y="10.5" width="3" height="3" fill="#e8e3ff"/><rect x="109" y="13.5" width="3" height="3" fill="#e8e3ff"/><rect x="109" y="16.5" width="3" height="3" fill="#e8e3ff"/><rect x="109" y="19.5" width="3" height="3" fill="#e8e3ff"/><rect x="109" y="22.5" width="3" height="3" fill="#e8e3ff"/><rect x="109" y="25.5" width="15" height="3" fill="#e8e3ff"/><rect x="130" y="7.5" width="12" height="3" fill="#e8e3ff"/><rect x="127" y="10.5" width="3" height="3" fill="#e8e3ff"/><rect x="127" y="13.5" width="3" height="3" fill="#e8e3ff"/><rect x="130" y="16.5" width="9" height="3" fill="#e8e3ff"/><rect x="139" y="19.5" width="3" height="3" fill="#e8e3ff"/><rect x="139" y="22.5" width="3" height="3" fill="#e8e3ff"/><rect x="127" y="25.5" width="12" height="3" fill="#e8e3ff"/></svg>