<svg xmlns="http://www.w3.org/2000/svg" width="800" height="450" viewBox="0 0 800 450" role="img" aria-label="No screenshot yet"><title>No screenshot yet — drop a PNG or GIF in assets/projects/</title><defs><pattern id="scan" width="1" height="3" patternUnits="userSpaceOnUse"><rect width="1" height="1" fill="#000"/></pattern><clipPath id="pc"><rect x="12" y="12" width="776" height="426"/></clipPath></defs><style>@keyframes bl{0%,49%{opacity:1}50%,100%{opacity:.12}}.bl{animation:bl 1.1s steps(1) infinite}@keyframes sl{0%{transform:translateY(-40px)}100%{transform:translateY(470px)}}.sl{animation:sl 5s linear infinite}</style><rect width="800" height="450" fill="#0d0221"/><g clip-path="url(#pc)"><rect x="12" y="12" width="110.857" height="180" fill="#e8e3ff" opacity="0.75"/><rect x="122.857" y="12" width="110.857" height="180" fill="#ffcc00" opacity="0.75"/><rect x="233.714" y="12" width="110.857" height="180" fill="#00e5ff" opacity="0.75"/><rect x="344.571" y="12" width="110.857" height="180" fill="#3ddc84" opacity="0.75"/><rect x="455.429" y="12" width="110.857" height="180" fill="#ff2e97" opacity="0.75"/><rect x="566.286" y="12" width="110.857" height="180" fill="#ff5555" opacity="0.75"/><rect x="677.143" y="12" width="110.857" height="180" fill="#a45cff" opacity="0.75"/><rect x="12" y="192" width="776" height="246" fill="#12042b"/><rect x="256" y="346" width="6" height="2" fill="#7a6ba3" opacity="0.14"/><rect x="632" y="316" width="6" height="2" fill="#7a6ba3" opacity="0.27"/><rect x="634" y="198" width="4" height="2" fill="#7a6ba3" opacity="0.18"/><rect x="252" y="244" width="6" height="2" fill="#7a6ba3" opacity="0.24"/><rect x="576" y="316" width="4" height="2" fill="#7a6ba3" opacity="0.29"/><rect x="168" y="254" width="6" height="2" fill="#7a6ba3" opacity="0.15"/><rect x="548" y="294" width="6" height="2" fill="#7a6ba3" opacity="0.10"/><rect x="78" y="236" width="6" height="2" fill="#7a6ba3" opacity="0.11"/><rect x="44" y="406" width="4" height="2" fill="#7a6ba3" opacity="0.24"/><rect x="750" y="430" width="4" height="2" fill="#7a6ba3" opacity="0.31"/><rect x="450" y="296" width="6" height="2" fill="#7a6ba3" opacity="0.34"/><rect x="468" y="230" width="4" height="2" fill="#7a6ba3" opacity="0.13"/><rect x="152" y="322" width="2" height="2" fill="#7a6ba3" opacity="0.18"/><rect x="702" y="306" width="6" height="2" fill="#7a6ba3" opacity="0.36"/><rect x="444" y="324" width="4" height="2" fill="#7a6ba3" opacity="0.27"/><rect x="560" y="344" width="4" height="2" fill="#7a6ba3" opacity="0.28"/><rect x="358" y="370" width="2" height="2" fill="#7a6ba3" opacity="0.36"/><rect x="634" y="366" width="6" height="2" fill="#7a6ba3" opacity="0.15"/><rect x="348" y="334" width="6" height="2" fill="#7a6ba3" opacity="0.27"/><rect x="744" y="362" width="2" height="2" fill="#7a6ba3" opacity="0.29"/><rect x="600" y="264" width="4" height="2" fill="#7a6ba3" opacity="0.14"/><rect x="506" y="414" width="6" height="2" fill="#7a6ba3" opacity="0.40"/><rect x="104" y="284" width="2" height="2" fill="#7a6ba3" opacity="0.22"/><rect x="168" y="200" width="4" height="2" fill="#7a6ba3" opacity="0.23"/><rect x="438" y="418" width="2" height="2" fill="#7a6ba3" opacity="0.11"/><rect x="642" y="390" width="2" height="2" fill="#7a6ba3" opacity="0.21"/><rect x="614" y="280" width="6" height="2" fill="#7a6ba3" opacity="0.36"/><rect x="298" y="324" width="2" height="2" fill="#7a6ba3" opacity="0.40"/><rect x="330" y="196" width="2" height="2" fill="#7a6ba3" opacity="0.13"/><rect x="562" y="204" width="2" height="2" fill="#7a6ba3" opacity="0.39"/><rect x="312" y="352" width="4" height="2" fill="#7a6ba3" opacity="0.15"/><rect x="56" y="418" width="4" height="2" fill="#7a6ba3" opacity="0.19"/><rect x="154" y="424" width="4" height="2" fill="#7a6ba3" opacity="0.21"/><rect x="546" y="294" width="6" height="2" fill="#7a6ba3" opacity="0.36"/><rect x="710" y="338" width="2" height="2" fill="#7a6ba3" opacity="0.29"/><rect x="532" y="264" width="4" height="2" fill="#7a6ba3" opacity="0.29"/><rect x="746" y="256" width="4" height="2" fill="#7a6ba3" opacity="0.23"/><rect x="278" y="328" width="4" height="2" fill="#7a6ba3" opacity="0.26"/><rect x="24" y="396" width="4" height="2" fill="#7a6ba3" opacity="0.40"/><rect x="336" y="200" width="4" height="2" fill="#7a6ba3" opacity="0.28"/><rect x="660" y="230" width="2" height="2" fill="#7a6ba3" opacity="0.29"/><rect x="354" y="314" width="4" height="2" fill="#7a6ba3" opacity="0.30"/><rect x="374" y="350" width="6" height="2" fill="#7a6ba3" opacity="0.18"/><rect x="514" y="200" width="6" height="2" fill="#7a6ba3" opacity="0.12"/><rect x="706" y="200" width="4" height="2" fill="#7a6ba3" opacity="0.18"/><rect x="480" y="272" width="6" height="2" fill="#7a6ba3" opacity="0.28"/><rect x="194" y="288" width="2" height="2" fill="#7a6ba3" opacity="0.19"/><rect x="392" y="412" width="6" height="2" fill="#7a6ba3" opacity="0.18"/><rect x="400" y="222" width="2" height="2" fill="#7a6ba3" opacity="0.39"/><rect x="714" y="384" width="2" height="2" fill="#7a6ba3" opacity="0.19"/><rect x="240" y="362" width="4" height="2" fill="#7a6ba3" opacity="0.17"/><rect x="204" y="368" width="4" height="2" fill="#7a6ba3" opacity="0.29"/><rect x="112" y="222" width="6" height="2" fill="#7a6ba3" opacity="0.20"/><rect x="354" y="368" width="2" height="2" fill="#7a6ba3" opacity="0.23"/><rect x="186" y="216" width="4" height="2" fill="#7a6ba3" opacity="0.32"/><rect x="236" y="422" width="6" height="2" fill="#7a6ba3" opacity="0.24"/><rect x="244" y="396" width="2" height="2" fill="#7a6ba3" opacity="0.11"/><rect x="208" y="276" width="6" height="2" fill="#7a6ba3" opacity="0.16"/><rect x="298" y="282" width="6" height="2" fill="#7a6ba3" opacity="0.13"/><rect x="648" y="284" width="6" height="2" fill="#7a6ba3" opacity="0.14"/><rect x="312" y="328" width="4" height="2" fill="#7a6ba3" opacity="0.24"/><rect x="662" y="302" width="4" height="2" fill="#7a6ba3" opacity="0.23"/><rect x="432" y="204" width="4" height="2" fill="#7a6ba3" opacity="0.15"/><rect x="18" y="318" width="6" height="2" fill="#7a6ba3" opacity="0.40"/><rect x="458" y="338" width="6" height="2" fill="#7a6ba3" opacity="0.17"/><rect x="776" y="312" width="6" height="2" fill="#7a6ba3" opacity="0.32"/><rect x="308" y="334" width="4" height="2" fill="#7a6ba3" opacity="0.37"/><rect x="82" y="414" width="6" height="2" fill="#7a6ba3" opacity="0.39"/><rect x="136" y="402" width="2" height="2" fill="#7a6ba3" opacity="0.11"/><rect x="724" y="326" width="2" height="2" fill="#7a6ba3" opacity="0.37"/><rect x="454" y="342" width="2" height="2" fill="#7a6ba3" opacity="0.10"/><rect x="776" y="226" width="2" height="2" fill="#7a6ba3" opacity="0.25"/><rect x="258" y="364" width="2" height="2" fill="#7a6ba3" opacity="0.26"/><rect x="436" y="208" width="6" height="2" fill="#7a6ba3" opacity="0.13"/><rect x="142" y="260" width="6" height="2" fill="#7a6ba3" opacity="0.24"/><rect x="76" y="286" width="2" height="2" fill="#7a6ba3" opacity="0.16"/><rect x="560" y="422" width="2" height="2" fill="#7a6ba3" opacity="0.15"/><rect x="294" y="430" width="2" height="2" fill="#7a6ba3" opacity="0.35"/><rect x="20" y="320" width="6" height="2" fill="#7a6ba3" opacity="0.27"/><rect x="422" y="208" width="4" height="2" fill="#7a6ba3" opacity="0.17"/><rect x="646" y="330" width="6" height="2" fill="#7a6ba3" opacity="0.23"/><rect x="498" y="278" width="2" height="2" fill="#7a6ba3" opacity="0.36"/><rect x="142" y="206" width="2" height="2" fill="#7a6ba3" opacity="0.11"/><rect x="508" y="204" width="6" height="2" fill="#7a6ba3" opacity="0.13"/><rect x="528" y="320" width="4" height="2" fill="#7a6ba3" opacity="0.15"/><rect x="86" y="284" width="4" height="2" fill="#7a6ba3" opacity="0.29"/><rect x="614" y="272" width="4" height="2" fill="#7a6ba3" opacity="0.18"/><rect x="350" y="304" width="2" height="2" fill="#7a6ba3" opacity="0.14"/><rect x="16" y="378" width="6" height="2" fill="#7a6ba3" opacity="0.21"/><rect x="94" y="340" width="2" height="2" fill="#7a6ba3" opacity="0.11"/><rect x="484" y="350" width="6" height="2" fill="#7a6ba3" opacity="0.33"/><rect x="402" y="358" width="2" height="2" fill="#7a6ba3" opacity="0.29"/><rect x="454" y="208" width="4" height="2" fill="#7a6ba3" opacity="0.29"/><rect x="732" y="276" width="4" height="2" fill="#7a6ba3" opacity="0.39"/><rect x="442" y="312" width="2" height="2" fill="#7a6ba3" opacity="0.17"/><rect x="562" y="264" width="6" height="2" fill="#7a6ba3" opacity="0.28"/><rect x="448" y="252" width="4" height="2" fill="#7a6ba3" opacity="0.14"/><rect x="42" y="278" width="4" height="2" fill="#7a6ba3" opacity="0.39"/><rect x="586" y="398" width="4" height="2" fill="#7a6ba3" opacity="0.14"/><rect x="720" y="226" width="6" height="2" fill="#7a6ba3" opacity="0.30"/><rect x="556" y="398" width="4" height="2" fill="#7a6ba3" opacity="0.30"/><rect x="764" y="276" width="6" height="2" fill="#7a6ba3" opacity="0.26"/><rect x="614" y="378" width="2" height="2" fill="#7a6ba3" opacity="0.24"/><rect x="254" y="394" width="4" height="2" fill="#7a6ba3" opacity="0.11"/><rect x="108" y="340" width="2" height="2" fill="#7a6ba3" opacity="0.30"/><rect x="398" y="240" width="2" height="2" fill="#7a6ba3" opacity="0.20"/><rect x="138" y="202" width="2" height="2" fill="#7a6ba3" opacity="0.30"/><rect x="726" y="268" width="6" height="2" fill="#7a6ba3" opacity="0.19"/><rect x="104" y="204" width="6" height="2" fill="#7a6ba3" opacity="0.25"/><rect x="746" y="256" width="2" height="2" fill="#7a6ba3" opacity="0.27"/><rect x="116" y="336" width="2" height="2" fill="#7a6ba3" opacity="0.27"/><rect x="590" y="242" width="2" height="2" fill="#7a6ba3" opacity="0.17"/><rect x="198" y="360" width="2" height="2" fill="#7a6ba3" opacity="0.24"/><rect x="730" y="388" width="4" height="2" fill="#7a6ba3" opacity="0.18"/><rect x="626" y="296" width="4" height="2" fill="#7a6ba3" opacity="0.27"/><rect x="98" y="292" width="6" height="2" fill="#7a6ba3" opacity="0.17"/><rect x="436" y="410" width="6" height="2" fill="#7a6ba3" opacity="0.39"/><rect x="438" y="372" width="6" height="2" fill="#7a6ba3" opacity="0.33"/><rect x="704" y="432" width="6" height="2" fill="#7a6ba3" opacity="0.31"/><rect x="172" y="360" width="4" height="2" fill="#7a6ba3" opacity="0.37"/><rect x="166" y="236" width="2" height="2" fill="#7a6ba3" opacity="0.25"/><rect x="508" y="430" width="6" height="2" fill="#7a6ba3" opacity="0.26"/><rect x="466" y="346" width="6" height="2" fill="#7a6ba3" opacity="0.36"/><rect x="152" y="264" width="2" height="2" fill="#7a6ba3" opacity="0.14"/><rect x="540" y="276" width="2" height="2" fill="#7a6ba3" opacity="0.36"/><rect x="564" y="394" width="4" height="2" fill="#7a6ba3" opacity="0.30"/><rect x="436" y="348" width="6" height="2" fill="#7a6ba3" opacity="0.28"/><rect x="286" y="422" width="2" height="2" fill="#7a6ba3" opacity="0.19"/><rect x="288" y="318" width="4" height="2" fill="#7a6ba3" opacity="0.16"/><rect x="596" y="288" width="2" height="2" fill="#7a6ba3" opacity="0.20"/><rect x="160" y="302" width="6" height="2" fill="#7a6ba3" opacity="0.24"/><rect x="626" y="248" width="4" height="2" fill="#7a6ba3" opacity="0.27"/><rect x="682" y="338" width="2" height="2" fill="#7a6ba3" opacity="0.24"/><rect x="752" y="214" width="4" height="2" fill="#7a6ba3" opacity="0.33"/><rect x="60" y="314" width="2" height="2" fill="#7a6ba3" opacity="0.37"/><rect x="676" y="378" width="6" height="2" fill="#7a6ba3" opacity="0.12"/><rect x="236" y="414" width="4" height="2" fill="#7a6ba3" opacity="0.17"/><rect x="208" y="394" width="4" height="2" fill="#7a6ba3" opacity="0.14"/><rect x="650" y="376" width="6" height="2" fill="#7a6ba3" opacity="0.36"/><rect x="274" y="238" width="2" height="2" fill="#7a6ba3" opacity="0.19"/><rect x="446" y="218" width="6" height="2" fill="#7a6ba3" opacity="0.34"/><rect x="134" y="218" width="4" height="2" fill="#7a6ba3" opacity="0.35"/><rect x="312" y="204" width="4" height="2" fill="#7a6ba3" opacity="0.24"/><rect x="764" y="368" width="4" height="2" fill="#7a6ba3" opacity="0.10"/><rect x="356" y="280" width="4" height="2" fill="#7a6ba3" opacity="0.21"/><rect x="92" y="248" width="6" height="2" fill="#7a6ba3" opacity="0.28"/><rect x="514" y="296" width="2" height="2" fill="#7a6ba3" opacity="0.26"/><rect x="136" y="422" width="4" height="2" fill="#7a6ba3" opacity="0.12"/><rect x="456" y="224" width="4" height="2" fill="#7a6ba3" opacity="0.37"/><rect x="270" y="220" width="6" height="2" fill="#7a6ba3" opacity="0.38"/><rect x="396" y="368" width="4" height="2" fill="#7a6ba3" opacity="0.33"/><rect x="316" y="364" width="6" height="2" fill="#7a6ba3" opacity="0.30"/><rect x="284" y="222" width="4" height="2" fill="#7a6ba3" opacity="0.30"/><rect x="562" y="330" width="2" height="2" fill="#7a6ba3" opacity="0.30"/><rect x="534" y="286" width="2" height="2" fill="#7a6ba3" opacity="0.32"/><rect x="708" y="382" width="6" height="2" fill="#7a6ba3" opacity="0.32"/><rect x="674" y="360" width="6" height="2" fill="#7a6ba3" opacity="0.29"/><rect x="196" y="290" width="6" height="2" fill="#7a6ba3" opacity="0.24"/><rect x="124" y="338" width="2" height="2" fill="#7a6ba3" opacity="0.38"/><rect x="674" y="380" width="6" height="2" fill="#7a6ba3" opacity="0.28"/><rect x="582" y="272" width="6" height="2" fill="#7a6ba3" opacity="0.16"/><rect x="506" y="274" width="2" height="2" fill="#7a6ba3" opacity="0.31"/><rect x="122" y="378" width="2" height="2" fill="#7a6ba3" opacity="0.33"/><rect x="570" y="342" width="6" height="2" fill="#7a6ba3" opacity="0.22"/><rect x="116" y="264" width="4" height="2" fill="#7a6ba3" opacity="0.22"/><rect x="152" y="206" width="4" height="2" fill="#7a6ba3" opacity="0.25"/><rect x="266" y="374" width="6" height="2" fill="#7a6ba3" opacity="0.21"/><rect x="354" y="298" width="4" height="2" fill="#7a6ba3" opacity="0.26"/><rect x="84" y="286" width="4" height="2" fill="#7a6ba3" opacity="0.35"/><rect x="128" y="234" width="4" height="2" fill="#7a6ba3" opacity="0.28"/><rect x="710" y="224" width="6" height="2" fill="#7a6ba3" opacity="0.33"/><rect x="758" y="224" width="2" height="2" fill="#7a6ba3" opacity="0.31"/><rect x="594" y="302" width="6" height="2" fill="#7a6ba3" opacity="0.32"/><rect x="780" y="228" width="6" height="2" fill="#7a6ba3" opacity="0.28"/><rect x="420" y="400" width="2" height="2" fill="#7a6ba3" opacity="0.26"/><rect x="188" y="340" width="2" height="2" fill="#7a6ba3" opacity="0.16"/><rect x="270" y="290" width="4" height="2" fill="#7a6ba3" opacity="0.11"/><rect x="468" y="424" width="4" height="2" fill="#7a6ba3" opacity="0.38"/><rect x="406" y="276" width="6" height="2" fill="#7a6ba3" opacity="0.37"/><rect x="330" y="358" width="4" height="2" fill="#7a6ba3" opacity="0.39"/><rect x="716" y="376" width="4" height="2" fill="#7a6ba3" opacity="0.37"/><rect x="696" y="318" width="2" height="2" fill="#7a6ba3" opacity="0.28"/><rect x="758" y="358" width="2" height="2" fill="#7a6ba3" opacity="0.13"/><rect x="690" y="254" width="4" height="2" fill="#7a6ba3" opacity="0.15"/><rect x="654" y="312" width="2" height="2" fill="#7a6ba3" opacity="0.16"/><rect x="556" y="250" width="2" height="2" fill="#7a6ba3" opacity="0.34"/><rect x="674" y="308" width="2" height="2" fill="#7a6ba3" opacity="0.27"/><rect x="686" y="424" width="2" height="2" fill="#7a6ba3" opacity="0.14"/><rect x="104" y="354" width="2" height="2" fill="#7a6ba3" opacity="0.11"/><rect x="646" y="254" width="6" height="2" fill="#7a6ba3" opacity="0.12"/><rect x="564" y="200" width="4" height="2" fill="#7a6ba3" opacity="0.20"/><rect x="366" y="372" width="6" height="2" fill="#7a6ba3" opacity="0.14"/><rect x="628" y="394" width="2" height="2" fill="#7a6ba3" opacity="0.31"/><rect x="770" y="282" width="2" height="2" fill="#7a6ba3" opacity="0.38"/><rect x="218" y="306" width="6" height="2" fill="#7a6ba3" opacity="0.33"/><rect x="510" y="276" width="2" height="2" fill="#7a6ba3" opacity="0.34"/><rect x="432" y="214" width="2" height="2" fill="#7a6ba3" opacity="0.31"/><rect x="414" y="322" width="4" height="2" fill="#7a6ba3" opacity="0.31"/><rect x="564" y="414" width="4" height="2" fill="#7a6ba3" opacity="0.16"/><rect x="514" y="272" width="2" height="2" fill="#7a6ba3" opacity="0.24"/><rect x="720" y="298" width="4" height="2" fill="#7a6ba3" opacity="0.15"/><rect x="52" y="380" width="4" height="2" fill="#7a6ba3" opacity="0.21"/><rect x="392" y="310" width="6" height="2" fill="#7a6ba3" opacity="0.21"/><rect x="424" y="252" width="2" height="2" fill="#7a6ba3" opacity="0.34"/><rect x="278" y="396" width="4" height="2" fill="#7a6ba3" opacity="0.14"/><rect x="484" y="332" width="2" height="2" fill="#7a6ba3" opacity="0.15"/><rect x="36" y="238" width="6" height="2" fill="#7a6ba3" opacity="0.22"/><rect x="186" y="358" width="2" height="2" fill="#7a6ba3" opacity="0.14"/><rect x="636" y="238" width="4" height="2" fill="#7a6ba3" opacity="0.25"/><rect x="74" y="410" width="2" height="2" fill="#7a6ba3" opacity="0.22"/><rect x="338" y="300" width="2" height="2" fill="#7a6ba3" opacity="0.31"/><rect x="66" y="256" width="4" height="2" fill="#7a6ba3" opacity="0.11"/><rect x="518" y="202" width="2" height="2" fill="#7a6ba3" opacity="0.17"/><rect x="412" y="316" width="2" height="2" fill="#7a6ba3" opacity="0.15"/><rect x="650" y="224" width="4" height="2" fill="#7a6ba3" opacity="0.37"/><rect x="622" y="208" width="6" height="2" fill="#7a6ba3" opacity="0.19"/><rect x="490" y="398" width="4" height="2" fill="#7a6ba3" opacity="0.25"/><rect x="588" y="264" width="2" height="2" fill="#7a6ba3" opacity="0.34"/><rect x="658" y="284" width="4" height="2" fill="#7a6ba3" opacity="0.13"/><rect x="712" y="306" width="2" height="2" fill="#7a6ba3" opacity="0.28"/><rect x="16" y="222" width="2" height="2" fill="#7a6ba3" opacity="0.30"/><rect x="32" y="238" width="6" height="2" fill="#7a6ba3" opacity="0.11"/><rect x="68" y="244" width="6" height="2" fill="#7a6ba3" opacity="0.25"/><rect x="352" y="246" width="4" height="2" fill="#7a6ba3" opacity="0.20"/><rect x="504" y="430" width="4" height="2" fill="#7a6ba3" opacity="0.38"/><rect x="48" y="292" width="4" height="2" fill="#7a6ba3" opacity="0.33"/><rect x="660" y="296" width="2" height="2" fill="#7a6ba3" opacity="0.38"/><rect x="202" y="412" width="4" height="2" fill="#7a6ba3" opacity="0.13"/><rect x="412" y="336" width="4" height="2" fill="#7a6ba3" opacity="0.26"/><rect x="426" y="240" width="6" height="2" fill="#7a6ba3" opacity="0.36"/><rect x="408" y="408" width="6" height="2" fill="#7a6ba3" opacity="0.21"/><rect x="202" y="288" width="4" height="2" fill="#7a6ba3" opacity="0.23"/><rect x="468" y="394" width="6" height="2" fill="#7a6ba3" opacity="0.24"/><rect x="288" y="406" width="2" height="2" fill="#7a6ba3" opacity="0.25"/><rect x="634" y="430" width="6" height="2" fill="#7a6ba3" opacity="0.31"/><rect x="512" y="206" width="2" height="2" fill="#7a6ba3" opacity="0.15"/><rect x="782" y="200" width="4" height="2" fill="#7a6ba3" opacity="0.13"/><rect x="722" y="368" width="6" height="2" fill="#7a6ba3" opacity="0.13"/><rect x="256" y="348" width="6" height="2" fill="#7a6ba3" opacity="0.12"/><rect x="640" y="418" width="2" height="2" fill="#7a6ba3" opacity="0.23"/><rect x="188" y="240" width="8" height="8" fill="#e8e3ff" class="bl"/><rect x="220" y="240" width="8" height="8" fill="#e8e3ff" class="bl"/><rect x="188" y="248" width="16" height="8" fill="#e8e3ff" class="bl"/><rect x="220" y="248" width="8" height="8" fill="#e8e3ff" class="bl"/><rect x="188" y="256" width="8" height="8" fill="#e8e3ff" class="bl"/><rect x="204" y="256" width="8" height="8" fill="#e8e3ff" class="bl"/><rect x="220" y="256" width="8" height="8" fill="#e8e3ff" class="bl"/><rect x="188" y="264" width="8" height="8" fill="#e8e3ff" class="bl"/><rect x="212" y="264" width="16" height="8" fill="#e8e3ff" class="bl"/><rect x="188" y="272" width="8" height="8" fill="#e8e3ff" class="bl"/><rect x="220" y="272" width="8" height="8" fill="#e8e3ff" class="bl"/><rect x="188" y="280" width="8" height="8" fill="#e8e3ff" class="bl"/><rect x="220" y="280" width="8" height="8" fill="#e8e3ff" class="bl"/><rect x="188" y="288" width="8" height="8" fill="#e8e3ff" class="bl"/><rect x="220" y="288" width="8" height="8" fill="#e8e3ff" class="bl"/><rect x="244" y="240" width="24" height="8" fill="#e8e3ff" class="bl"/><rect x="236" y="248" width="8" height="8" fill="#e8e3ff" class="bl"/><rect x="268" y="248" width="8" height="8" fill="#e8e3ff" class="bl"/><rect x="236" y="256" width="8" height="8" fill="#e8e3ff" class="bl"/><rect x="268" y="256" width="8" height="8" fill="#e8e3ff" class="bl"/><rect x="236" y="264" width="8" height="8" fill="#e8e3ff" class="bl"/><rect x="268" y="264" width="8" height="8" fill="#e8e3ff" class="bl"/><rect x="236" y="272" width="8" height="8" fill="#e8e3ff" class="bl"/><rect x="268" y="272" width="8" height="8" fill="#e8e3ff" class="bl"/><rect x="236" y="280" width="8" height="8" fill="#e8e3ff" class="bl"/><rect x="268" y="280" width="8" height="8" fill="#e8e3ff" class="bl"/><rect x="244" y="288" width="24" height="8" fill="#e8e3ff" class="bl"/><rect x="340" y="240" width="32" height="8" fill="#e8e3ff" class="bl"/><rect x="332" y="248" width="8" height="8" fill="#e8e3ff" class="bl"/><rect x="332" y="256" width="8" height="8" fill="#e8e3ff" class="bl"/><rect x="340" y="264" width="24" height="8" fill="#e8e3ff" class="bl"/><rect x="364" y="272" width="8" height="8" fill="#e8e3ff" class="bl"/><rect x="364" y="280" width="8" height="8" fill="#e8e3ff" class="bl"/><rect x="332" y="288" width="32" height="8" fill="#e8e3ff" class="bl"/><rect x="380" y="240" width="40" height="8" fill="#e8e3ff" class="bl"/><rect x="396" y="248" width="8" height="8" fill="#e8e3ff" class="bl"/><rect x="396" y="256" width="8" height="8" fill="#e8e3ff" class="bl"/><rect x="396" y="264" width="8" height="8" fill="#e8e3ff" class="bl"/><rect x="396" y="272" width="8" height="8" fill="#e8e3ff" class="bl"/><rect x="396" y="280" width="8" height="8" fill="#e8e3ff" class="bl"/><rect x="380" y="288" width="40" height="8" fill="#e8e3ff" class="bl"/><rect x="436" y="240" width="24" height="8" fill="#e8e3ff" class="bl"/><rect x="428" y="248" width="8" height="8" fill="#e8e3ff" class="bl"/><rect x="460" y="248" width="8" height="8" fill="#e8e3ff" class="bl"/><rect x="428" y="256" width="8" height="8" fill="#e8e3ff" class="bl"/><rect x="428" y="264" width="8" height="8" fill="#e8e3ff" class="bl"/><rect x="444" y="264" width="24" height="8" fill="#e8e3ff" class="bl"/><rect x="428" y="272" width="8" height="8" fill="#e8e3ff" class="bl"/><rect x="460" y="272" width="8" height="8" fill="#e8e3ff" class="bl"/><rect x="428" y="280" width="8" height="8" fill="#e8e3ff" class="bl"/><rect x="460" y="280" width="8" height="8" fill="#e8e3ff" class="bl"/><rect x="436" y="288" width="24" height="8" fill="#e8e3ff" class="bl"/><rect x="476" y="240" width="8" height="8" fill="#e8e3ff" class="bl"/><rect x="508" y="240" width="8" height="8" fill="#e8e3ff" class="bl"/><rect x="476" y="248" width="16" height="8" fill="#e8e3ff" class="bl"/><rect x="508" y="248" width="8" height="8" fill="#e8e3ff" class="bl"/><rect x="476" y="256" width="8" height="8" fill="#e8e3ff" class="bl"/><rect x="492" y="256" width="8" height="8" fill="#e8e3ff" class="bl"/><rect x="508" y="256" width="8" height="8" fill="#e8e3ff" class="bl"/><rect x="476" y="264" width="8" height="8" fill="#e8e3ff" class="bl"/><rect x="500" y="264" width="16" height="8" fill="#e8e3ff" class="bl"/><rect x="476" y="272" width="8" height="8" fill="#e8e3ff" class="bl"/><rect x="508" y="272" width="8" height="8" fill="#e8e3ff" class="bl"/><rect x="476" y="280" width="8" height="8" fill="#e8e3ff" class="bl"/><rect x="508" y="280" width="8" height="8" fill="#e8e3ff" class="bl"/><rect x="476" y="288" width="8" height="8" fill="#e8e3ff" class="bl"/><rect x="508" y="288" width="8" height="8" fill="#e8e3ff" class="bl"/><rect x="532" y="240" width="24" height="8" fill="#e8e3ff" class="bl"/><rect x="524" y="248" width="8" height="8" fill="#e8e3ff" class="bl"/><rect x="556" y="248" width="8" height="8" fill="#e8e3ff" class="bl"/><rect x="524" y="256" width="8" height="8" fill="#e8e3ff" class="bl"/><rect x="556" y="256" width="8" height="8" fill="#e8e3ff" class="bl"/><rect x="524" y="264" width="40" height="8" fill="#e8e3ff" class="bl"/><rect x="524" y="272" width="8" height="8" fill="#e8e3ff" class="bl"/><rect x="556" y="272" width="8" height="8" fill="#e8e3ff" class="bl"/><rect x="524" y="280" width="8" height="8" fill="#e8e3ff" class="bl"/><rect x="556" y="280" width="8" height="8" fill="#e8e3ff" class="bl"/><rect x="524" y="288" width="8" height="8" fill="#e8e3ff" class="bl"/><rect x="556" y="288" width="8" height="8" fill="#e8e3ff" class="bl"/><rect x="572" y="240" width="8" height="8" fill="#e8e3ff" class="bl"/><rect x="572" y="248" width="8" height="8" fill="#e8e3ff" class="bl"/><rect x="572" y="256" width="8" height="8" fill="#e8e3ff" class="bl"/><rect x="572" y="264" width="8" height="8" fill="#e8e3ff" class="bl"/><rect x="572" y="272" width="8" height="8" fill="#e8e3ff" class="bl"/><rect x="572" y="280" width="8" height="8" fill="#e8e3ff" class="bl"/><rect x="572" y="288" width="40" height="8" fill="#e8e3ff" class="bl"/><rect x="158.5" y="320" width="12" height="3" fill="#7a6ba3"/><rect x="158.5" y="323" width="3" height="3" fill="#7a6ba3"/><rect x="170.5" y="323" width="3" height="3" fill="#7a6ba3"/><rect x="158.5" y="326" width="3" height="3" fill="#7a6ba3"/><rect x="170.5" y="326" width="3" height="3" fill="#7a6ba3"/><rect x="158.5" y="329" width="3" height="3" fill="#7a6ba3"/><rect x="170.5" y="329" width="3" height="3" fill="#7a6ba3"/><rect x="158.5" y="332" width="3" height="3" fill="#7a6ba3"/><rect x="170.5" y="332" width="3" height="3" fill="#7a6ba3"/><rect x="158.5" y="335" width="3" height="3" fill="#7a6ba3"/><rect x="170.5" y="335" width="3" height="3" fill="#7a6ba3"/><rect x="158.5" y="338" width="12" height="3" fill="#7a6ba3"/><rect x="176.5" y="320" width="12" height="3" fill="#7a6ba3"/><rect x="176.5" y="323" width="3" height="3" fill="#7a6ba3"/><rect x="188.5" y="323" width="3" height="3" fill="#7a6ba3"/><rect x="176.5" y="326" width="3" height="3" fill="#7a6ba3"/><rect x="188.5" y="326" width="3" height="3" fill="#7a6ba3"/><rect x="176.5" y="329" width="12" height="3" fill="#7a6ba3"/><rect x="176.5" y="332" width="3" height="3" fill="#7a6ba3"/><rect x="182.5" y="332" width="3" height="3" fill="#7a6ba3"/><rect x="176.5" y="335" width="3" height="3" fill="#7a6ba3"/><rect x="185.5" y="335" width="3" height="3" fill="#7a6ba3"/><rect x="176.5" y="338" width="3" height="3" fill="#7a6ba3"/><rect x="188.5" y="338" width="3" height="3" fill="#7a6ba3"/><rect x="197.5" y="320" width="9" height="3" fill="#7a6ba3"/><rect x="194.5" y="323" width="3" height="3" fill="#7a6ba3"/><rect x="206.5" y="323" width="3" height="3" fill="#7a6ba3"/><rect x="194.5" y="326" width="3" height="3" fill="#7a6ba3"/><rect x="206.5" y="326" width="3" height="3" fill="#7a6ba3"/><rect x="194.5" y="329" width="3" height="3" fill="#7a6ba3"/><rect x="206.5" y="329" width="3" height="3" fill="#7a6ba3"/><rect x="194.5" y="332" width="3" height="3" fill="#7a6ba3"/><rect x="206.5" y="332" width="3" height="3" fill="#7a6ba3"/><rect x="194.5" y="335" width="3" height="3" fill="#7a6ba3"/><rect x="206.5" y="335" width="3" height="3" fill="#7a6ba3"/><rect x="197.5" y="338" width="9" height="3" fill="#7a6ba3"/><rect x="212.5" y="320" width="12" height="3" fill="#7a6ba3"/><rect x="212.5" y="323" width="3" height="3" fill="#7a6ba3"/><rect x="224.5" y="323" width="3" height="3" fill="#7a6ba3"/><rect x="212.5" y="326" width="3" height="3" fill="#7a6ba3"/><rect x="224.5" y="326" width="3" height="3" fill="#7a6ba3"/><rect x="212.5" y="329" width="12" height="3" fill="#7a6ba3"/><rect x="212.5" y="332" width="3" height="3" fill="#7a6ba3"/><rect x="212.5" y="335" width="3" height="3" fill="#7a6ba3"/><rect x="212.5" y="338" width="3" height="3" fill="#7a6ba3"/><rect x="251.5" y="320" width="9" height="3" fill="#7a6ba3"/><rect x="248.5" y="323" width="3" height="3" fill="#7a6ba3"/><rect x="260.5" y="323" width="3" height="3" fill="#7a6ba3"/><rect x="248.5" y="326" width="3" height="3" fill="#7a6ba3"/><rect x="260.5" y="326" width="3" height="3" fill="#7a6ba3"/><rect x="248.5" y="329" width="15" height="3" fill="#7a6ba3"/><rect x="248.5" y="332" width="3" height="3" fill="#7a6ba3"/><rect x="260.5" y="332" width="3" height="3" fill="#7a6ba3"/><rect x="248.5" y="335" width="3" height="3" fill="#7a6ba3"/><rect x="260.5" y="335" width="3" height="3" fill="#7a6ba3"/><rect x="248.5" y="338" width="3" height="3" fill="#7a6ba3"/><rect x="260.5" y="338" width="3" height="3" fill="#7a6ba3"/><rect x="287.5" y="320" width="12" height="3" fill="#7a6ba3"/><rect x="284.5" y="323" width="3" height="3" fill="#7a6ba3"/><rect x="284.5" y="326" width="3" height="3" fill="#7a6ba3"/><rect x="287.5" y="329" width="9" height="3" fill="#7a6ba3"/><rect x="296.5" y="332" width="3" height="3" fill="#7a6ba3"/><rect x="296.5" y="335" width="3" height="3" fill="#7a6ba3"/><rect x="284.5" y="338" width="12" height="3" fill="#7a6ba3"/><rect x="305.5" y="320" width="9" height="3" fill="#7a6ba3"/><rect x="302.5" y="323" width="3" height="3" fill="#7a6ba3"/><rect x="314.5" y="323" width="3" height="3" fill="#7a6ba3"/><rect x="302.5" y="326" width="3" height="3" fill="#7a6ba3"/><rect x="302.5" y="329" width="3" height="3" fill="#7a6ba3"/><rect x="302.5" y="332" width="3" height="3" fill="#7a6ba3"/><rect x="302.5" y="335" width="3" height="3" fill="#7a6ba3"/><rect x="314.5" y="335" width="3" height="3" fill="#7a6ba3"/><rect x="305.5" y="338" width="9" height="3" fill="#7a6ba3"/><rect x="320.5" y="320" width="12" height="3" fill="#7a6ba3"/><rect x="320.5" y="323" width="3" height="3" fill="#7a6ba3"/><rect x="332.5" y="323" width="3" height="3" fill="#7a6ba3"/><rect x="320.5" y="326" width="3" height="3" fill="#7a6ba3"/><rect x="332.5" y="326" width="3" height="3" fill="#7a6ba3"/><rect x="320.5" y="329" width="12" height="3" fill="#7a6ba3"/><rect x="320.5" y="332" width="3" height="3" fill="#7a6ba3"/><rect x="326.5" y="332" width="3" height="3" fill="#7a6ba3"/><rect x="320.5" y="335" width="3" height="3" fill="#7a6ba3"/><rect x="329.5" y="335" width="3" height="3" fill="#7a6ba3"/><rect x="320.5" y="338" width="3" height="3" fill="#7a6ba3"/><rect x="332.5" y="338" width="3" height="3" fill="#7a6ba3"/><rect x="338.5" y="320" width="15" height="3" fill="#7a6ba3"/><rect x="338.5" y="323" width="3" height="3" fill="#7a6ba3"/><rect x="338.5" y="326" width="3" height="3" fill="#7a6ba3"/><rect x="338.5" y="329" width="12" height="3" fill="#7a6ba3"/><rect x="338.5" y="332" width="3" height="3" fill="#7a6ba3"/><rect x="338.5" y="335" width="3" height="3" fill="#7a6ba3"/><rect x="338.5" y="338" width="15" height="3" fill="#7a6ba3"/><rect x="356.5" y="320" width="15" height="3" fill="#7a6ba3"/><rect x="356.5" y="323" width="3" height="3" fill="#7a6ba3"/><rect x="356.5" y="326" width="3" height="3" fill="#7a6ba3"/><rect x="356.5" y="329" width="12" height="3" fill="#7a6ba3"/><rect x="356.5" y="332" width="3" height="3" fill="#7a6ba3"/><rect x="356.5" y="335" width="3" height="3" fill="#7a6ba3"/><rect x="356.5" y="338" width="15" height="3" fill="#7a6ba3"/><rect x="374.5" y="320" width="3" height="3" fill="#7a6ba3"/><rect x="386.5" y="320" width="3" height="3" fill="#7a6ba3"/><rect x="374.5" y="323" width="6" height="3" fill="#7a6ba3"/><rect x="386.5" y="323" width="3" height="3" fill="#7a6ba3"/><rect x="374.5" y="326" width="3" height="3" fill="#7a6ba3"/><rect x="380.5" y="326" width="3" height="3" fill="#7a6ba3"/><rect x="386.5" y="326" width="3" height="3" fill="#7a6ba3"/><rect x="374.5" y="329" width="3" height="3" fill="#7a6ba3"/><rect x="383.5" y="329" width="6" height="3" fill="#7a6ba3"/><rect x="374.5" y="332" width="3" height="3" fill="#7a6ba3"/><rect x="386.5" y="332" width="3" height="3" fill="#7a6ba3"/><rect x="374.5" y="335" width="3" height="3" fill="#7a6ba3"/><rect x="386.5" y="335" width="3" height="3" fill="#7a6ba3"/><rect x="374.5" y="338" width="3" height="3" fill="#7a6ba3"/><rect x="386.5" y="338" width="3" height="3" fill="#7a6ba3"/><rect x="395.5" y="320" width="12" height="3" fill="#7a6ba3"/><rect x="392.5" y="323" width="3" height="3" fill="#7a6ba3"/><rect x="392.5" y="326" width="3" height="3" fill="#7a6ba3"/><rect x="395.5" y="329" width="9" height="3" fill="#7a6ba3"/><rect x="404.5" y="332" width="3" height="3" fill="#7a6ba3"/><rect x="404.5" y="335" width="3" height="3" fill="#7a6ba3"/><rect x="392.5" y="338" width="12" height="3" fill="#7a6ba3"/><rect x="410.5" y="320" width="3" height="3" fill="#7a6ba3"/><rect x="422.5" y="320" width="3" height="3" fill="#7a6ba3"/><rect x="410.5" y="323" width="3" height="3" fill="#7a6ba3"/><rect x="422.5" y="323" width="3" height="3" fill="#7a6ba3"/><rect x="410.5" y="326" width="3" height="3" fill="#7a6ba3"/><rect x="422.5" y="326" width="3" height="3" fill="#7a6ba3"/><rect x="410.5" y="329" width="15" height="3" fill="#7a6ba3"/><rect x="410.5" y="332" width="3" height="3" fill="#7a6ba3"/><rect x="422.5" y="332" width="3" height="3" fill="#7a6ba3"/><rect x="410.5" y="335" width="3" height="3" fill="#7a6ba3"/><rect x="422.5" y="335" width="3" height="3" fill="#7a6ba3"/><rect x="410.5" y="338" width="3" height="3" fill="#7a6ba3"/><rect x="422.5" y="338" width="3" height="3" fill="#7a6ba3"/><rect x="431.5" y="320" width="9" height="3" fill="#7a6ba3"/><rect x="428.5" y="323" width="3" height="3" fill="#7a6ba3"/><rect x="440.5" y="323" width="3" height="3" fill="#7a6ba3"/><rect x="428.5" y="326" width="3" height="3" fill="#7a6ba3"/><rect x="440.5" y="326" width="3" height="3" fill="#7a6ba3"/><rect x="428.5" y="329" width="3" height="3" fill="#7a6ba3"/><rect x="440.5" y="329" width="3" height="3" fill="#7a6ba3"/><rect x="428.5" y="332" width="3" height="3" fill="#7a6ba3"/><rect x="440.5" y="332" width="3" height="3" fill="#7a6ba3"/><rect x="428.5" y="335" width="3" height="3" fill="#7a6ba3"/><rect x="440.5" y="335" width="3" height="3" fill="#7a6ba3"/><rect x="431.5" y="338" width="9" height="3" fill="#7a6ba3"/><rect x="446.5" y="320" width="15" height="3" fill="#7a6ba3"/><rect x="452.5" y="323" width="3" height="3" fill="#7a6ba3"/><rect x="452.5" y="326" width="3" height="3" fill="#7a6ba3"/><rect x="452.5" y="329" width="3" height="3" fill="#7a6ba3"/><rect x="452.5" y="332" width="3" height="3" fill="#7a6ba3"/><rect x="452.5" y="335" width="3" height="3" fill="#7a6ba3"/><rect x="452.5" y="338" width="3" height="3" fill="#7a6ba3"/><rect x="485.5" y="320" width="9" height="3" fill="#7a6ba3"/><rect x="482.5" y="323" width="3" height="3" fill="#7a6ba3"/><rect x="494.5" y="323" width="3" height="3" fill="#7a6ba3"/><rect x="482.5" y="326" width="3" height="3" fill="#7a6ba3"/><rect x="494.5" y="326" width="3" height="3" fill="#7a6ba3"/><rect x="482.5" y="329" width="3" height="3" fill="#7a6ba3"/><rect x="494.5" y="329" width="3" height="3" fill="#7a6ba3"/><rect x="482.5" y="332" width="3" height="3" fill="#7a6ba3"/><rect x="494.5" y="332" width="3" height="3" fill="#7a6ba3"/><rect x="482.5" y="335" width="3" height="3" fill="#7a6ba3"/><rect x="494.5" y="335" width="3" height="3" fill="#7a6ba3"/><rect x="485.5" y="338" width="9" height="3" fill="#7a6ba3"/><rect x="500.5" y="320" width="12" height="3" fill="#7a6ba3"/><rect x="500.5" y="323" width="3" height="3" fill="#7a6ba3"/><rect x="512.5" y="323" width="3" height="3" fill="#7a6ba3"/><rect x="500.5" y="326" width="3" height="3" fill="#7a6ba3"/><rect x="512.5" y="326" width="3" height="3" fill="#7a6ba3"/><rect x="500.5" y="329" width="12" height="3" fill="#7a6ba3"/><rect x="500.5" y="332" width="3" height="3" fill="#7a6ba3"/><rect x="506.5" y="332" width="3" height="3" fill="#7a6ba3"/><rect x="500.5" y="335" width="3" height="3" fill="#7a6ba3"/><rect x="509.5" y="335" width="3" height="3" fill="#7a6ba3"/><rect x="500.5" y="338" width="3" height="3" fill="#7a6ba3"/><rect x="512.5" y="338" width="3" height="3" fill="#7a6ba3"/><rect x="539.5" y="320" width="9" height="3" fill="#7a6ba3"/><rect x="536.5" y="323" width="3" height="3" fill="#7a6ba3"/><rect x="548.5" y="323" width="3" height="3" fill="#7a6ba3"/><rect x="536.5" y="326" width="3" height="3" fill="#7a6ba3"/><rect x="536.5" y="329" width="3" height="3" fill="#7a6ba3"/><rect x="542.5" y="329" width="9" height="3" fill="#7a6ba3"/><rect x="536.5" y="332" width="3" height="3" fill="#7a6ba3"/><rect x="548.5" y="332" width="3" height="3" fill="#7a6ba3"/><rect x="536.5" y="335" width="3" height="3" fill="#7a6ba3"/><rect x="548.5" y="335" width="3" height="3" fill="#7a6ba3"/><rect x="539.5" y="338" width="9" height="3" fill="#7a6ba3"/><rect x="554.5" y="320" width="15" height="3" fill="#7a6ba3"/><rect x="560.5" y="323" width="3" height="3" fill="#7a6ba3"/><rect x="560.5" y="326" width="3" height="3" fill="#7a6ba3"/><rect x="560.5" y="329" width="3" height="3" fill="#7a6ba3"/><rect x="560.5" y="332" width="3" height="3" fill="#7a6ba3"/><rect x="560.5" y="335" width="3" height="3" fill="#7a6ba3"/><rect x="554.5" y="338" width="15" height="3" fill="#7a6ba3"/><rect x="572.5" y="320" width="15" height="3" fill="#7a6ba3"/><rect x="572.5" y="323" width="3" height="3" fill="#7a6ba3"/><rect x="572.5" y="326" width="3" height="3" fill="#7a6ba3"/><rect x="572.5" y="329" width="12" height="3" fill="#7a6ba3"/><rect x="572.5" y="332" width="3" height="3" fill="#7a6ba3"/><rect x="572.5" y="335" width="3" height="3" fill="#7a6ba3"/><rect x="572.5" y="338" width="3" height="3" fill="#7a6ba3"/><rect x="608.5" y="320" width="15" height="3" fill="#7a6ba3"/><rect x="614.5" y="323" width="3" height="3" fill="#7a6ba3"/><rect x="614.5" y="326" width="3" height="3" fill="#7a6ba3"/><rect x="614.5" y="329" width="3" height="3" fill="#7a6ba3"/><rect x="614.5" y="332" width="3" height="3" fill="#7a6ba3"/><rect x="614.5" y="335" width="3" height="3" fill="#7a6ba3"/><rect x="608.5" y="338" width="15" height="3" fill="#7a6ba3"/><rect x="626.5" y="320" width="3" height="3" fill="#7a6ba3"/><rect x="638.5" y="320" width="3" height="3" fill="#7a6ba3"/><rect x="626.5" y="323" width="6" height="3" fill="#7a6ba3"/><rect x="638.5" y="323" width="3" height="3" fill="#7a6ba3"/><rect x="626.5" y="326" width="3" height="3" fill="#7a6ba3"/><rect x="632.5" y="326" width="3" height="3" fill="#7a6ba3"/><rect x="638.5" y="326" width="3" height="3" fill="#7a6ba3"/><rect x="626.5" y="329" width="3" height="3" fill="#7a6ba3"/><rect x="635.5" y="329" width="6" height="3" fill="#7a6ba3"/><rect x="626.5" y="332" width="3" height="3" fill="#7a6ba3"/><rect x="638.5" y="332" width="3" height="3" fill="#7a6ba3"/><rect x="626.5" y="335" width="3" height="3" fill="#7a6ba3"/><rect x="638.5" y="335" width="3" height="3" fill="#7a6ba3"/><rect x="626.5" y="338" width="3" height="3" fill="#7a6ba3"/><rect x="638.5" y="338" width="3" height="3" fill="#7a6ba3"/><rect x="260.5" y="348" width="9" height="3" fill="#00e5ff"/><rect x="257.5" y="351" width="3" height="3" fill="#00e5ff"/><rect x="269.5" y="351" width="3" height="3" fill="#00e5ff"/><rect x="257.5" y="354" width="3" height="3" fill="#00e5ff"/><rect x="269.5" y="354" width="3" height="3" fill="#00e5ff"/><rect x="257.5" y="357" width="15" height="3" fill="#00e5ff"/><rect x="257.5" y="360" width="3" height="3" fill="#00e5ff"/><rect x="269.5" y="360" width="3" height="3" fill="#00e5ff"/><rect x="257.5" y="363" width="3" height="3" fill="#00e5ff"/><rect x="269.5" y="363" width="3" height="3" fill="#00e5ff"/><rect x="257.5" y="366" width="3" height="3" fill="#00e5ff"/><rect x="269.5" y="366" width="3" height="3" fill="#00e5ff"/><rect x="278.5" y="348" width="12" height="3" fill="#00e5ff"/><rect x="275.5" y="351" width="3" height="3" fill="#00e5ff"/><rect x="275.5" y="354" width="3" height="3" fill="#00e5ff"/><rect x="278.5" y="357" width="9" height="3" fill="#00e5ff"/><rect x="287.5" y="360" width="3" height="3" fill="#00e5ff"/><rect x="287.5" y="363" width="3" height="3" fill="#00e5ff"/><rect x="275.5" y="366" width="12" height="3" fill="#00e5ff"/><rect x="296.5" y="348" width="12" height="3" fill="#00e5ff"/><rect x="293.5" y="351" width="3" height="3" fill="#00e5ff"/><rect x="293.5" y="354" width="3" height="3" fill="#00e5ff"/><rect x="296.5" y="357" width="9" height="3" fill="#00e5ff"/><rect x="305.5" y="360" width="3" height="3" fill="#00e5ff"/><rect x="305.5" y="363" width="3" height="3" fill="#00e5ff"/><rect x="293.5" y="366" width="12" height="3" fill="#00e5ff"/><rect x="311.5" y="348" width="15" height="3" fill="#00e5ff"/><rect x="311.5" y="351" width="3" height="3" fill="#00e5ff"/><rect x="311.5" y="354" width="3" height="3" fill="#00e5ff"/><rect x="311.5" y="357" width="12" height="3" fill="#00e5ff"/><rect x="311.5" y="360" width="3" height="3" fill="#00e5ff"/><rect x="311.5" y="363" width="3" height="3" fill="#00e5ff"/><rect x="311.5" y="366" width="15" height="3" fill="#00e5ff"/><rect x="329.5" y="348" width="15" height="3" fill="#00e5ff"/><rect x="335.5" y="351" width="3" height="3" fill="#00e5ff"/><rect x="335.5" y="354" width="3" height="3" fill="#00e5ff"/><rect x="335.5" y="357" width="3" height="3" fill="#00e5ff"/><rect x="335.5" y="360" width="3" height="3" fill="#00e5ff"/><rect x="335.5" y="363" width="3" height="3" fill="#00e5ff"/><rect x="335.5" y="366" width="3" height="3" fill="#00e5ff"/><rect x="350.5" y="348" width="12" height="3" fill="#00e5ff"/><rect x="347.5" y="351" width="3" height="3" fill="#00e5ff"/><rect x="347.5" y="354" width="3" height="3" fill="#00e5ff"/><rect x="350.5" y="357" width="9" height="3" fill="#00e5ff"/><rect x="359.5" y="360" width="3" height="3" fill="#00e5ff"/><rect x="359.5" y="363" width="3" height="3" fill="#00e5ff"/><rect x="347.5" y="366" width="12" height="3" fill="#00e5ff"/><rect x="377.5" y="348" width="3" height="3" fill="#00e5ff"/><rect x="377.5" y="351" width="3" height="3" fill="#00e5ff"/><rect x="374.5" y="354" width="3" height="3" fill="#00e5ff"/><rect x="371.5" y="357" width="3" height="3" fill="#00e5ff"/><rect x="368.5" y="360" width="3" height="3" fill="#00e5ff"/><rect x="365.5" y="363" width="3" height="3" fill="#00e5ff"/><rect x="365.5" y="366" width="3" height="3" fill="#00e5ff"/><rect x="383.5" y="348" width="12" height="3" fill="#00e5ff"/><rect x="383.5" y="351" width="3" height="3" fill="#00e5ff"/><rect x="395.5" y="351" width="3" height="3" fill="#00e5ff"/><rect x="383.5" y="354" width="3" height="3" fill="#00e5ff"/><rect x="395.5" y="354" width="3" height="3" fill="#00e5ff"/><rect x="383.5" y="357" width="12" height="3" fill="#00e5ff"/><rect x="383.5" y="360" width="3" height="3" fill="#00e5ff"/><rect x="383.5" y="363" width="3" height="3" fill="#00e5ff"/><rect x="383.5" y="366" width="3" height="3" fill="#00e5ff"/><rect x="401.5" y="348" width="12" height="3" fill="#00e5ff"/><rect x="401.5" y="351" width="3" height="3" fill="#00e5ff"/><rect x="413.5" y="351" width="3" height="3" fill="#00e5ff"/><rect x="401.5" y="354" width="3" height="3" fill="#00e5ff"/><rect x="413.5" y="354" width="3" height="3" fill="#00e5ff"/><rect x="401.5" y="357" width="12" height="3" fill="#00e5ff"/><rect x="401.5" y="360" width="3" height="3" fill="#00e5ff"/><rect x="407.5" y="360" width="3" height="3" fill="#00e5ff"/><rect x="401.5" y="363" width="3" height="3" fill="#00e5ff"/><rect x="410.5" y="363" width="3" height="3" fill="#00e5ff"/><rect x="401.5" y="366" width="3" height="3" fill="#00e5ff"/><rect x="413.5" y="366" width="3" height="3" fill="#00e5ff"/><rect x="422.5" y="348" width="9" height="3" fill="#00e5ff"/><rect x="419.5" y="351" width="3" height="3" fill="#00e5ff"/><rect x="431.5" y="351" width="3" height="3" fill="#00e5ff"/><rect x="419.5" y="354" width="3" height="3" fill="#00e5ff"/><rect x="431.5" y="354" width="3" height="3" fill="#00e5ff"/><rect x="419.5" y="357" width="3" height="3" fill="#00e5ff"/><rect x="431.5" y="357" width="3" height="3" fill="#00e5ff"/><rect x="419.5" y="360" width="3" height="3" fill="#00e5ff"/><rect x="431.5" y="360" width="3" height="3" fill="#00e5ff"/><rect x="419.5" y="363" width="3" height="3" fill="#00e5ff"/><rect x="431.5" y="363" width="3" height="3" fill="#00e5ff"/><rect x="422.5" y="366" width="9" height="3" fill="#00e5ff"/><rect x="443.5" y="348" width="9" height="3" fill="#00e5ff"/><rect x="446.5" y="351" width="3" height="3" fill="#00e5ff"/><rect x="446.5" y="354" width="3" height="3" fill="#00e5ff"/><rect x="446.5" y="357" width="3" height="3" fill="#00e5ff"/><rect x="446.5" y="360" width="3" height="3" fill="#00e5ff"/><rect x="437.5" y="363" width="3" height="3" fill="#00e5ff"/><rect x="446.5" y="363" width="3" height="3" fill="#00e5ff"/><rect x="440.5" y="366" width="6" height="3" fill="#00e5ff"/><rect x="455.5" y="348" width="15" height="3" fill="#00e5ff"/><rect x="455.5" y="351" width="3" height="3" fill="#00e5ff"/><rect x="455.5" y="354" width="3" height="3" fill="#00e5ff"/><rect x="455.5" y="357" width="12" height="3" fill="#00e5ff"/><rect x="455.5" y="360" width="3" height="3" fill="#00e5ff"/><rect x="455.5" y="363" width="3" height="3" fill="#00e5ff"/><rect x="455.5" y="366" width="15" height="3" fill="#00e5ff"/><rect x="476.5" y="348" width="9" height="3" fill="#00e5ff"/><rect x="473.5" y="351" width="3" height="3" fill="#00e5ff"/><rect x="485.5" y="351" width="3" height="3" fill="#00e5ff"/><rect x="473.5" y="354" width="3" height="3" fill="#00e5ff"/><rect x="473.5" y="357" width="3" height="3" fill="#00e5ff"/><rect x="473.5" y="360" width="3" height="3" fill="#00e5ff"/><rect x="473.5" y="363" width="3" height="3" fill="#00e5ff"/><rect x="485.5" y="363" width="3" height="3" fill="#00e5ff"/><rect x="476.5" y="366" width="9" height="3" fill="#00e5ff"/><rect x="491.5" y="348" width="15" height="3" fill="#00e5ff"/><rect x="497.5" y="351" width="3" height="3" fill="#00e5ff"/><rect x="497.5" y="354" width="3" height="3" fill="#00e5ff"/><rect x="497.5" y="357" width="3" height="3" fill="#00e5ff"/><rect x="497.5" y="360" width="3" height="3" fill="#00e5ff"/><rect x="497.5" y="363" width="3" height="3" fill="#00e5ff"/><rect x="497.5" y="366" width="3" height="3" fill="#00e5ff"/><rect x="512.5" y="348" width="12" height="3" fill="#00e5ff"/><rect x="509.5" y="351" width="3" height="3" fill="#00e5ff"/><rect x="509.5" y="354" width="3" height="3" fill="#00e5ff"/><rect x="512.5" y="357" width="9" height="3" fill="#00e5ff"/><rect x="521.5" y="360" width="3" height="3" fill="#00e5ff"/><rect x="521.5" y="363" width="3" height="3" fill="#00e5ff"/><rect x="509.5" y="366" width="12" height="3" fill="#00e5ff"/><rect x="539.5" y="348" width="3" height="3" fill="#00e5ff"/><rect x="539.5" y="351" width="3" height="3" fill="#00e5ff"/><rect x="536.5" y="354" width="3" height="3" fill="#00e5ff"/><rect x="533.5" y="357" width="3" height="3" fill="#00e5ff"/><rect x="530.5" y="360" width="3" height="3" fill="#00e5ff"/><rect x="527.5" y="363" width="3" height="3" fill="#00e5ff"/><rect x="527.5" y="366" width="3" height="3" fill="#00e5ff"/><rect class="sl" x="12" y="0" width="776" height="40" fill="#ffffff" opacity="0.04"/></g><rect width="800" height="450" fill="url(#scan)" opacity="0.35"/><rect x="3.5" y="3.5" width="793" height="443" fill="none" stroke="#ff2e97" stroke-width="3"/><rect x="10.5" y="10.5" width="779" height="429" fill="none" stroke="#a45cff" stroke-width="1" opacity="0.5"/><rect x="0" y="0" width="14" height="14" fill="#0d0221"/><rect x="3" y="3" width="8" height="8" fill="#00e5ff"/><rect x="786" y="0" width="14" height="14" fill="#0d0221"/><rect x="789" y="3" width="8" height="8" fill="#00e5ff"/><rect x="0" y="436" width="14" height="14" fill="#0d0221"/><rect x="3" y="439" width="8" height="8" fill="#00e5ff"/><rect x="786" y="436" width="14" height="14" fill="#0d0221"/><rect x="789" y="439" width="8" height="8" fill="#00e5ff"/></svg>